<?xml version="1.0" standalone="no"?>
<!DOCTYPE svg PUBLIC "-//W3C//DTD SVG 20010904//EN"
 "http://www.w3.org/TR/2001/REC-SVG-20010904/DTD/svg10.dtd">
<svg version="1.0" xmlns="http://www.w3.org/2000/svg"
 width="48.000000pt" height="48.000000pt" viewBox="0 0 48.000000 48.000000"
 preserveAspectRatio="xMidYMid meet" class="icon">

<g transform="translate(0.000000,48.000000) scale(0.100000,-0.100000)"
fill="#000000" stroke="none">
<path d="M89 415 c-14 -8 -34 -25 -43 -39 -20 -31 -21 -114 -2 -160 29 -70
141 -166 193 -166 59 0 168 91 199 165 18 45 18 118 -1 155 -29 55 -105 76
-166 45 -27 -14 -32 -14 -51 0 -28 19 -94 19 -129 0z m125 -36 l26 -20 26 20
c32 25 90 28 121 6 28 -20 43 -74 34 -117 -13 -54 -38 -93 -87 -137 -76 -67
-112 -67 -188 0 -96 84 -120 199 -53 251 30 24 88 23 121 -3z"/>
</g>
</svg>
